<?xml version="1.0" standalone="no"?>
<!DOCTYPE svg PUBLIC "-//W3C//DTD SVG 20010904//EN"
 "http://www.w3.org/TR/2001/REC-SVG-20010904/DTD/svg10.dtd">
<svg version="1.0" xmlns="http://www.w3.org/2000/svg"
 width="260.000000pt" height="260.000000pt" viewBox="0 0 260.000000 260.000000"
 preserveAspectRatio="xMidYMid meet">
<metadata>
Created by potrace 1.11, written by Peter Selinger 2001-2013
</metadata>
<g transform="translate(0.000000,260.000000) scale(0.100000,-0.100000)"
fill="#000000" stroke="none">
<path d="M1273 2524 c-3 -8 -11 -14 -19 -14 -8 0 -14 -7 -14 -16 0 -8 -5 -12
-11 -9 -5 4 -19 -3 -30 -16 -10 -12 -19 -18 -19 -13 0 5 -5 1 -11 -8 -5 -10
-17 -18 -24 -18 -8 0 -15 -4 -15 -10 0 -5 -7 -10 -15 -10 -8 0 -15 -4 -15 -10
0 -5 -6 -10 -14 -10 -8 0 -17 -7 -20 -16 -4 -9 -9 -14 -12 -11 -9 8 -33 -16
-26 -27 3 -5 0 -6 -5 -3 -10 6 -47 -17 -81 -50 -7 -7 -20 -13 -28 -13 -8 0
-14 -7 -14 -15 0 -8 -3 -14 -7 -14 -22 4 -33 -2 -27 -13 5 -8 2 -9 -12 -4 -10
4 -15 4 -12 0 4 -3 -2 -16 -13 -27 -13 -14 -16 -23 -8 -26 8 -2 7 -6 -2 -12
-12 -7 -12 -9 0 -9 11 0 11 -3 0 -16 -10 -13 -10 -17 0 -23 10 -7 11 -13 1
-31 -8 -15 -8 -20 -1 -16 13 8 10 -29 -4 -41 -4 -5 -5 -2 0 6 5 9 4 12 -3 7
-7 -4 -12 -14 -12 -22 0 -8 -5 -12 -11 -9 -5 4 -21 -5 -34 -19 -14 -15 -26
-26 -27 -26 -10 3 -37 -14 -33 -20 3 -4 -7 -11 -20 -14 -14 -4 -23 -11 -20
-16 3 -6 0 -10 -8 -10 -7 0 -19 -12 -25 -26 -8 -15 -8 -23 -2 -19 6 4 10 -5
10 -22 0 -15 1 -39 2 -53 3 -25 -22 -60 -43 -60 -5 0 -7 -4 -4 -10 3 -5 2 -10
-4 -10 -6 0 -20 -10 -32 -22 -12 -13 -18 -17 -14 -9 5 9 4 12 -3 7 -7 -4 -12
-14 -12 -21 0 -9 -6 -12 -15 -9 -9 4 -15 0 -15 -10 0 -9 -7 -16 -16 -16 -8 0
-12 -4 -9 -10 3 -5 2 -10 -3 -10 -5 0 -9 -7 -9 -15 0 -12 3 -12 15 -2 13 10
14 9 3 -10 -9 -18 -9 -23 1 -23 9 0 9 -3 -2 -10 -13 -8 -12 -10 3 -10 10 0 15
-5 12 -10 -4 -6 -12 -7 -18 -3 -7 4 -4 -6 7 -21 10 -16 13 -25 7 -22 -6 4 -11
3 -11 -3 0 -5 6 -12 13 -14 8 -4 8 -6 -2 -6 -11 -1 -10 -5 5 -17 10 -8 12 -12
4 -8 -13 7 -13 5 -2 -8 10 -13 10 -18 1 -24 -9 -5 -7 -11 6 -21 11 -7 14 -13
9 -13 -5 0 -10 -9 -10 -19 0 -11 4 -17 8 -15 4 3 6 -9 4 -25 -2 -17 0 -31 4
-31 4 0 6 -11 5 -25 -2 -14 2 -25 8 -25 7 0 6 -5 -3 -10 -13 -8 -13 -11 -1
-19 8 -5 14 -22 15 -37 1 -16 5 -35 10 -43 6 -10 5 -12 -2 -7 -7 4 -12 2 -12
-3 0 -6 5 -11 11 -11 8 0 8 -4 0 -14 -8 -10 -8 -16 2 -24 7 -7 13 -27 12 -47
-1 -20 3 -35 9 -35 6 0 4 -5 -4 -10 -13 -9 -13 -10 0 -10 13 0 13 -1 0 -10
-12 -8 -12 -10 -1 -10 8 0 11 -3 8 -6 -3 -4 0 -16 8 -27 10 -14 11 -25 4 -39
-7 -13 -6 -18 2 -18 8 0 8 -4 -1 -15 -10 -12 -9 -15 6 -16 11 0 14 -3 9 -5 -6
-2 -9 -20 -7 -39 3 -23 8 -32 16 -28 6 4 5 -1 -3 -10 -12 -15 -11 -17 8 -17
12 0 20 -4 17 -9 -3 -5 1 -12 10 -15 9 -3 14 -12 11 -20 -4 -9 2 -12 19 -10
20 2 23 0 14 -11 -10 -11 -8 -13 9 -10 13 2 18 -1 15 -9 -3 -8 5 -16 21 -20
23 -6 25 -9 13 -23 -7 -9 -8 -14 -2 -10 6 3 29 -10 50 -31 21 -20 34 -30 29
-22 -6 10 -4 9 6 -2 9 -9 19 -14 23 -11 3 4 6 -3 6 -14 0 -18 29 -37 53 -34 4
1 6 -2 6 -6 -4 -25 2 -35 18 -29 10 4 15 4 11 1 -9 -9 23 -45 34 -39 4 3 8 1
8 -3 0 -5 7 -18 16 -29 8 -10 13 -12 9 -4 -4 8 0 6 9 -4 8 -10 13 -23 10 -27
-3 -5 2 -6 10 -3 9 3 16 1 16 -5 0 -7 8 -15 18 -18 22 -9 42 -29 42 -43 0 -6
4 -8 10 -5 5 3 10 1 10 -5 0 -6 5 -8 10 -5 6 4 9 1 8 -7 -2 -7 3 -12 10 -10 8
1 11 -2 7 -7 -3 -6 4 -15 15 -21 11 -6 18 -15 15 -20 -3 -6 1 -7 9 -4 15 6 21
-6 17 -30 -1 -5 5 -4 13 4 9 7 17 10 17 6 2 -10 6 -25 9 -33 1 -5 2 -12 1 -16
-1 -5 3 -6 9 -2 6 3 7 11 4 17 -4 7 -2 8 4 4 7 -4 12 -14 12 -22 0 -11 4 -12
19 -5 10 6 22 7 27 3 5 -4 2 1 -5 10 -7 10 -11 19 -7 19 3 1 11 3 16 4 6 1 16
3 23 4 8 1 7 4 -3 11 -13 8 -12 10 5 11 11 1 23 1 27 1 3 -1 13 14 22 33 17
36 36 54 36 35 0 -6 5 -8 10 -5 6 4 8 11 5 16 -4 5 -1 9 5 9 6 0 8 5 5 10 -5
9 15 15 37 11 4 0 4 7 1 16 -4 11 -3 14 5 9 7 -4 12 -1 12 8 0 10 6 13 15 10
11 -5 13 -2 9 10 -4 11 -1 16 11 16 10 0 13 -5 9 -12 -4 -7 -3 -8 5 -4 8 5 9
12 2 20 -11 13 23 41 39 31 5 -3 7 4 5 15 -2 11 0 18 5 15 6 -3 18 -1 27 4 10
6 12 11 6 11 -7 0 -13 4 -13 9 0 5 8 8 17 7 10 0 18 4 18 11 0 6 4 15 9 20 5
4 6 3 2 -4 -3 -6 -2 -14 4 -18 6 -3 10 3 10 15 0 13 8 24 20 27 11 3 20 12 20
20 0 9 6 13 14 10 11 -4 13 -1 9 11 -6 15 -5 16 12 2 17 -14 18 -14 5 10 -13
24 -12 24 5 10 17 -14 18 -13 12 3 -4 11 -3 16 4 12 6 -4 13 3 16 15 4 17 8
19 15 8 7 -9 8 -6 5 10 -5 20 -3 21 11 10 14 -11 15 -10 9 6 -7 17 -5 17 10 5
10 -7 15 -9 11 -5 -5 5 1 16 12 23 11 8 18 19 15 24 -4 5 2 6 12 2 16 -6 17
-5 3 12 -9 11 -10 16 -2 11 7 -4 19 0 28 8 9 9 20 14 25 11 5 -4 6 0 3 8 -3 8
0 18 7 23 8 5 10 3 4 -6 -5 -9 -4 -11 4 -6 9 6 9 11 1 21 -8 10 -7 16 7 24 14
8 15 11 3 11 -12 0 -11 3 3 11 19 11 23 29 6 29 -5 0 -8 -4 -5 -8 3 -5 -2 -9
-10 -9 -11 0 -11 5 4 21 28 31 35 47 19 40 -8 -3 -14 1 -14 10 0 9 6 12 16 8
14 -5 14 -4 1 13 -8 10 -10 16 -3 12 6 -4 15 -2 19 4 4 7 3 9 -3 6 -6 -4 -13
2 -16 12 -3 13 0 18 7 15 7 -3 13 2 13 10 0 8 -5 12 -11 9 -6 -4 -4 2 4 13 17
21 19 42 6 63 -6 10 -5 12 2 7 7 -4 12 -4 13 1 0 4 2 20 4 36 3 19 0 25 -8 20
-7 -4 -6 0 2 10 10 13 11 20 2 31 -9 11 -8 15 4 20 13 5 14 10 4 28 -12 22
-11 22 6 8 17 -14 18 -14 5 10 -12 23 -12 24 3 11 21 -17 22 -8 1 13 -14 15
-14 16 3 16 15 0 16 2 3 10 -9 6 -10 10 -3 10 6 0 11 13 11 29 -1 15 3 34 7
41 5 8 4 11 -3 7 -6 -5 -8 0 -5 13 3 11 9 17 14 15 4 -3 6 6 3 21 -3 16 -1 23
6 19 6 -3 7 0 4 9 -3 9 -9 14 -13 11 -4 -2 -8 2 -8 10 0 11 5 12 21 3 20 -11
20 -10 4 9 -14 15 -15 22 -6 31 16 16 20 50 7 57 -7 5 -4 14 8 27 13 15 15 22
6 25 -7 3 -13 9 -13 14 0 6 4 8 8 5 5 -3 9 1 9 9 0 8 -8 15 -16 15 -9 0 -23 9
-31 20 -8 11 -19 20 -25 20 -6 0 -17 9 -24 19 -8 11 -20 17 -28 14 -7 -3 -13
2 -13 11 0 9 -5 16 -11 16 -5 0 -7 -5 -3 -12 4 -7 3 -8 -5 -4 -6 4 -9 12 -6
17 4 5 1 9 -6 9 -7 0 -9 3 -6 7 4 3 -1 12 -11 19 -16 12 -16 13 1 19 9 4 17
14 17 22 0 8 -4 11 -10 8 -15 -9 -12 2 6 19 12 12 12 16 2 16 -10 0 -9 3 2 10
9 6 10 10 3 10 -6 0 -10 9 -8 19 3 15 0 18 -12 14 -13 -5 -15 -2 -9 12 4 11 4
16 0 12 -4 -4 -21 4 -38 16 -17 13 -39 26 -48 30 -10 3 -18 11 -18 17 0 6 -4
9 -9 6 -5 -3 -12 1 -15 10 -3 8 -9 13 -13 11 -12 -7 -30 17 -27 36 1 9 -2 17
-7 17 -5 0 -9 5 -9 11 0 5 3 8 8 6 4 -3 8 19 8 49 1 37 -2 52 -10 47 -6 -3 -6
-1 1 7 10 11 7 18 -14 36 -24 20 -35 22 -86 15 -5 0 -5 -5 -2 -11 3 -5 0 -10
-8 -10 -8 0 -29 -13 -48 -29 -18 -16 -37 -27 -41 -25 -4 3 -8 -2 -8 -10 0 -9
-7 -16 -15 -16 -8 0 -15 -4 -15 -9 0 -5 -13 -14 -30 -19 -33 -12 -49 0 -30 23
8 10 8 15 -1 21 -8 5 -9 3 -4 -6 5 -9 4 -11 -4 -6 -9 6 -9 11 0 22 6 8 9 14 6
14 -3 0 -2 13 3 30 8 27 5 31 -35 57 -24 15 -41 31 -38 36 3 5 -3 6 -13 3 -15
-5 -19 0 -21 22 0 15 4 30 10 34 7 5 8 8 2 8 -6 0 -12 11 -13 26 -1 14 2 23 8
19 6 -4 6 4 0 21 -8 20 -8 29 2 35 9 6 8 10 -5 15 -9 3 -14 11 -10 17 3 5 1 7
-5 3 -6 -3 -16 0 -24 7 -21 21 -58 28 -65 11z"/>
</g>
</svg>
