<?xml version="1.0" encoding="utf-8"?>
<!-- Generator: Adobe Illustrator 18.0.0, SVG Export Plug-In . SVG Version: 6.00 Build 0)  -->
<!DOCTYPE svg PUBLIC "-//W3C//DTD SVG 1.1//EN" "http://www.w3.org/Graphics/SVG/1.1/DTD/svg11.dtd">
<svg version="1.1" id="Camada_1" xmlns="http://www.w3.org/2000/svg" xmlns:xlink="http://www.w3.org/1999/xlink" x="0px" y="0px"
	 viewBox="0 0 82.7 24.7" enable-background="new 0 0 82.7 24.7" xml:space="preserve">
<path fill="#485B6D" d="M11.1,1.3c0.2,0,0.4,0.1,0.6,0.3c0.3,0.3,0.3,0.9,0,1.3l-9.3,9.5l9.3,9.5c0.3,0.3,0.3,0.9,0,1.3
	c-0.3,0.3-0.9,0.3-1.2,0L0,12.3L10.5,1.6C10.7,1.4,10.9,1.3,11.1,1.3z"/>
<g>
	<path fill="#757575" d="M26.3,20.8l-3.9-14h1.1l3.4,12.7h0.1l3.2-12.7h1.1l-3.8,14H26.3z"/>
	<path fill="#757575" d="M36.3,21.1c-3.7,0-4.6-3.3-4.6-7.4c0-4,0.9-7.3,4.8-7.3c3.7,0,4.6,3.3,4.6,7.3
		C41.1,17.8,40.2,21.1,36.3,21.1z M36.4,7.4c-2.7,0-3.6,2.4-3.6,6.4c0,4,0.9,6.4,3.6,6.4s3.6-2.4,3.6-6.4C40,9.8,39.1,7.4,36.4,7.4z
		"/>
	<path fill="#757575" d="M42.8,1.6h1v19.2h-1V1.6z"/>
	<path fill="#757575" d="M44.7,6.8h1.9V2.6h1v4.2H50v0.9h-2.3v10.8c0,1.3,0.6,1.6,1.2,1.6c0.4,0,0.8,0,1.3-0.2v0.9
		c-0.5,0.1-1,0.2-1.4,0.2c-1.4,0-2.1-0.8-2.1-2.4V7.7h-1.9V6.8z"/>
	<path fill="#757575" d="M58.1,19.1c0,0.7,0.3,0.9,0.6,0.9c0.2,0,0.5,0,0.6-0.1v0.8c-0.2,0.2-0.6,0.2-1.1,0.2
		c-0.4,0-1.2-0.4-1.2-1.5v-0.9H57c-0.4,1.4-1.8,2.6-3.7,2.6c-2.4,0-3.5-1.7-3.5-3.9c0-2.1,0.9-3.3,2.8-3.9l3-0.8
		c1.2-0.3,1.4-0.9,1.4-2.1c0-2.5-1.2-3.1-2.7-3.1c-2.4,0-3.1,1.5-3.1,3.4h-1c0-1.9,0.7-4.3,4-4.3c3.1,0,3.8,1.7,3.8,3.7V19.1z
		 M57.1,12.6L57.1,12.6c-0.4,0.6-0.8,0.6-1.8,0.9l-2.1,0.6c-1.6,0.5-2.2,1.4-2.2,3.1c0,1.8,0.8,3,2.6,3c2.4,0,3.5-1.9,3.5-4.7V12.6z
		"/>
	<path fill="#757575" d="M60.2,6.8h1v2.4h0.1c0.5-1.6,1.7-2.8,3.5-2.8h0.6v0.9h-0.6c-2.4,0-3.6,2.2-3.6,4.5v8.9h-1V6.8z"/>
</g>
<rect x="78.1" y="0.1" fill="#485B6D" width="4.6" height="24.6"/>
</svg>
