<?xml version="1.0" encoding="utf-8"?>
<!-- Generator: Adobe Illustrator 18.0.0, SVG Export Plug-In . SVG Version: 6.00 Build 0)  -->
<!DOCTYPE svg PUBLIC "-//W3C//DTD SVG 1.1//EN" "http://www.w3.org/Graphics/SVG/1.1/DTD/svg11.dtd">
<svg version="1.1" id="Camada_1" xmlns="http://www.w3.org/2000/svg" xmlns:xlink="http://www.w3.org/1999/xlink" x="0px" y="0px"
	 viewBox="0 0 23.4 40" enable-background="new 0 0 23.4 40" xml:space="preserve">
<path fill="#3182B7" d="M6,38c-2,0-3,0-5,0C3,38,4,38,6,38l0.2-4.1h14.1c0.7,0,1.4-0.3,1.9-0.8c0.5-0.5,0.8-1.2,0.8-1.9c0,0,0,0,0,0
	L22.9,15c0-1.5-1.2-2.7-2.7-2.7h-8.5V6.4H6.4V15c0,1.5,1.2,2.7,2.7,2.7l8.5,0v1.8l0.1,9.1H3.5c-1.5,0-2.7,1.2-2.7,2.7v6.1
	C0.8,38.8,2,40,3.5,40H6C6,39,6,39,6,38L6,38z"/>
<path fill="#3182B7" d="M0,2.7v19c0,1.5,1.2,2.7,2.7,2.7h8.5l0,3.2l5.4-0.1l-0.1-5.8c0-1.5-1.2-2.7-2.7-2.7H5.4V5.4l18,0l0-5.4
	L2.7,0C1.2,0,0,1.2,0,2.7z"/>
</svg>
